HIERARCHY
ROOT hip
{
  OFFSET 0.0 0.0 0.0
  CHANNELS 6 Xposition Yposition Zposition Zrotation Yrotation Xrotation
  JOINT abdomen
  {
    OFFSET 0.0 20.6881 -0.73152
    CHANNELS 3 Zrotation Xrotation Yrotation
    JOINT chest
    {
      OFFSET 0.0 11.7043 -0.48768
      CHANNELS 3 Zrotation Xrotation Yrotation
      JOINT neck
      {
        OFFSET 0.0 22.1894 -2.19456
        CHANNELS 3 Zrotation Xrotation Yrotation
        JOINT head
        {
          OFFSET -0.24384 7.07133 1.2192
          CHANNELS 3 Zrotation Xrotation Yrotation
          JOINT leftEye
          {
            OFFSET 4.14528 8.04674 8.04672
            CHANNELS 3 Zrotation Xrotation Yrotation
            End Site
            {
              OFFSET 1.0 0.0 0.0
            }
          }
          JOINT rightEye
          {
            OFFSET -3.6576 8.04674 8.04672
            CHANNELS 3 Zrotation Xrotation Yrotation
            End Site
            {
              OFFSET 1.0 0.0 0.0
            }
          }
        }
      }
      JOINT rCollar
      {
        OFFSET -2.68224 19.2634 -4.8768
        CHANNELS 3 Zrotation Xrotation Yrotation
        JOINT rShldr
        {
          OFFSET -8.77824 -1.95073 1.46304
          CHANNELS 3 Zrotation Xrotation Yrotation
          JOINT rForeArm
          {
            OFFSET -28.1742 -1.7115 0.48768
            CHANNELS 3 Zrotation Xrotation Yrotation
            JOINT rHand
            {
              OFFSET -22.5879 0.773209 7.07136
              CHANNELS 3 Zrotation Xrotation Yrotation
              JOINT rThumb1
              {
                OFFSET -1.2192 -0.487915 3.41376
                CHANNELS 3 Zrotation Xrotation Yrotation
                JOINT rThumb2
                {
                  OFFSET -3.37035 -0.52449 3.41376
                  CHANNELS 3 Zrotation Xrotation Yrotation
                  End Site
                  {
                    OFFSET -1.78271 -1.18214 1.43049
                  }
                }
              }
              JOINT rIndex1
              {
                OFFSET -7.75947 0.938293 5.60832
                CHANNELS 3 Zrotation Xrotation Yrotation
                JOINT rIndex2
                {
                  OFFSET -2.54057 -0.884171 1.56538
                  CHANNELS 3 Zrotation Xrotation Yrotation
                  End Site
                  {
                    OFFSET -1.62519 -0.234802 1.16502
                  }
                }
              }
              JOINT rMid1
              {
                OFFSET -8.24714 1.18213 3.41376
                CHANNELS 3 Zrotation Xrotation Yrotation
                JOINT rMid2
                {
                  OFFSET -3.10165 -0.590103 1.0647
                  CHANNELS 3 Zrotation Xrotation Yrotation
                  End Site
                  {
                    OFFSET -2.48547 -0.328903 0.83742
                  }
                }
              }
              JOINT rRing1
              {
                OFFSET -8.82822 0.546677 1.51678
                CHANNELS 3 Zrotation Xrotation Yrotation
                JOINT rRing2
                {
                  OFFSET -2.60934 -0.819778 -0.0198488
                  CHANNELS 3 Zrotation Xrotation Yrotation
                  End Site
                  {
                    OFFSET -2.33842 -0.294052 0.168128
                  }
                }
              }
              JOINT rPinky1
              {
                OFFSET -8.27202 -0.0477905 -0.4584
                CHANNELS 3 Zrotation Xrotation Yrotation
                JOINT rPinky2
                {
                  OFFSET -1.82734 -0.647385 -0.700984
                  CHANNELS 3 Zrotation Xrotation Yrotation
                  End Site
                  {
                    OFFSET -1.69225 -0.51767 -0.607171
                  }
                }
              }
            }
          }
        }
      }
      JOINT lCollar
      {
        OFFSET 2.68224 19.2634 -4.8768
        CHANNELS 3 Zrotation Xrotation Yrotation
        JOINT lShldr
        {
          OFFSET 8.77824 -1.95073 1.46304
          CHANNELS 3 Zrotation Xrotation Yrotation
          JOINT lForeArm
          {
            OFFSET 28.1742 -1.7115 0.48768
            CHANNELS 3 Zrotation Xrotation Yrotation
            JOINT lHand
            {
              OFFSET 22.5879 0.773209 7.07136
              CHANNELS 3 Zrotation Xrotation Yrotation
              JOINT lThumb1
              {
                OFFSET 1.2192 -0.487915 3.41376
                CHANNELS 3 Zrotation Xrotation Yrotation
                JOINT lThumb2
                {
                  OFFSET 3.37035 -0.52449 3.41376
                  CHANNELS 3 Zrotation Xrotation Yrotation
                  End Site
                  {
                    OFFSET 1.78271 -1.18214 1.43049
                  }
                }
              }
              JOINT lIndex1
              {
                OFFSET 7.75947 0.938293 5.60832
                CHANNELS 3 Zrotation Xrotation Yrotation
                JOINT lIndex2
                {
                  OFFSET 2.54057 -0.884171 1.56538
                  CHANNELS 3 Zrotation Xrotation Yrotation
                  End Site
                  {
                    OFFSET 1.62519 -0.234802 1.16502
                  }
                }
              }
              JOINT lMid1
              {
                OFFSET 8.24714 1.18213 3.41376
                CHANNELS 3 Zrotation Xrotation Yrotation
                JOINT lMid2
                {
                  OFFSET 3.10165 -0.590103 1.0647
                  CHANNELS 3 Zrotation Xrotation Yrotation
                  End Site
                  {
                    OFFSET 2.48547 -0.328903 0.83742
                  }
                }
              }
              JOINT lRing1
              {
                OFFSET 8.82822 0.546677 1.51678
                CHANNELS 3 Zrotation Xrotation Yrotation
                JOINT lRing2
                {
                  OFFSET 2.60934 -0.819778 -0.0198488
                  CHANNELS 3 Zrotation Xrotation Yrotation
                  End Site
                  {
                    OFFSET 2.33842 -0.294052 0.168128
                  }
                }
              }
              JOINT lPinky1
              {
                OFFSET 8.27202 -0.0477905 -0.4584
                CHANNELS 3 Zrotation Xrotation Yrotation
                JOINT lPinky2
                {
                  OFFSET 1.82734 -0.647385 -0.700984
                  CHANNELS 3 Zrotation Xrotation Yrotation
                  End Site
                  {
                    OFFSET 1.69225 -0.51767 -0.607171
                  }
                }
              }
            }
          }
        }
      }
    }
  }
  JOINT rButtock
  {
    OFFSET -8.77824 4.35084 1.2192
    CHANNELS 3 Zrotation Xrotation Yrotation
    JOINT rThigh
    {
      OFFSET 0.0 -1.70687 -2.19456
      CHANNELS 3 Zrotation Xrotation Yrotation
      JOINT rShin
      {
        OFFSET 0.0 -36.8199 0.73152
        CHANNELS 3 Zrotation Xrotation Yrotation
        JOINT rFoot
        {
          OFFSET 0.73152 -45.1104 -5.12064
          CHANNELS 3 Zrotation Xrotation Yrotation
          End Site
          {
            OFFSET -1.1221 -3.69964 12.103
          }
        }
      }
    }
  }
  JOINT lButtock
  {
    OFFSET 8.77824 4.35084 1.2192
    CHANNELS 3 Zrotation Xrotation Yrotation
    JOINT lThigh
    {
      OFFSET 0.0 -1.70687 -2.19456
      CHANNELS 3 Zrotation Xrotation Yrotation
      JOINT lShin
      {
        OFFSET 0.0 -36.8199 0.73152
        CHANNELS 3 Zrotation Xrotation Yrotation
        JOINT lFoot
        {
          OFFSET -0.73152 -45.1104 -5.12064
          CHANNELS 3 Zrotation Xrotation Yrotation
          End Site
          {
            OFFSET 1.1221 -3.69964 12.103
          }
        }
      }
    }
  }
}
MOTION
Frames: 6
Frame Time: 0.00833333
-30.5443 55.3154 -4.171502 -62.3082 -87.6248 80.6089 6.91481 12.555 -0.517159 4.54134 -20.0213 0.886065 -3.82121 -1.07197 1.80002 -23.4703 2.18863 3.44104 -0.0 0.0 0.0 -0.0 0.0 0.0 0.0 0.0 0.0 0.0 0.0 0.0 0.0 0.0 0.0 -5.5552 -53.5738 -10.9786 -1.45845e-09 -7.87314e-10 4.04923e-10 -2.53143e-09 -1.20252e-09 6.38883e-10 -1.45844e-09 -7.87297e-10 4.04897e-10 7.73091 5.47488 0.417314 -1.45845e-09 -7.87316e-10 4.04926e-10 2.90554 0.965183 0.102902 -1.45845e-09 -7.87314e-10 4.04928e-10 10.2786 0.731801 0.0259123 -1.45846e-09 -7.87312e-10 4.04939e-10 2.22167 -0.733487 -0.20892 0.0 0.0 0.0 0.0 0.0 0.0 0.0 0.0 0.0 0.525777 -20.1581 2.95733 3.14497e-09 1.923e-09 -8.43992e-11 5.43511e-09 3.45366e-09 -1.04712e-10 3.14496e-09 1.92298e-09 -8.43928e-11 -7.73091 5.47488 -0.417314 3.14497e-09 1.92299e-09 -8.44087e-11 -2.90554 0.965183 -0.102902 3.14497e-09 1.923e-09 -8.44024e-11 -10.2786 0.731801 -0.0259123 3.14497e-09 1.923e-09 -8.44119e-11 -2.22167 -0.733487 0.20892 -2.03217e-16 0.0 -3.88251e-19 75.5485 -67.9341 66.9566 -36.3318 88.1979 36.4968 0.881792 -27.2299 2.42267 2.03217e-16 0.0 3.88251e-19 -8.21446 -10.2789 -7.90033 1.00116 66.9314 -3.75234 -6.04595 4.45619 -20.4546
-30.815400000000004 54.6206 -3.964752 -53.324 -87.6814 71.4498 6.68733 12.9301 -0.536663 4.62288 -20.1554 0.912083 -3.9742 -1.06885 1.77785 -23.634 2.45477 3.46349 -0.0 0.0 0.0 -0.0 0.0 0.0 0.0 0.0 0.0 0.0 0.0 0.0 0.0 0.0 0.0 -5.12874 -52.1892 -10.4408 -1.57781e-09 -9.43877e-11 1.66501e-10 -2.72878e-09 2.42641e-11 2.23073e-10 -1.5778e-09 -9.43734e-11 1.66481e-10 7.73091 5.47488 0.417314 -1.57781e-09 -9.43842e-11 1.66506e-10 2.90554 0.965183 0.102902 -1.57781e-09 -9.43882e-11 1.66507e-10 10.2786 0.731801 0.0259123 -1.57782e-09 -9.43866e-11 1.66517e-10 2.22167 -0.733487 -0.20892 0.0 0.0 0.0 0.0 0.0 0.0 0.0 0.0 0.0 0.532841 -20.2113 2.96735 3.40781e-09 2.4173e-09 -1.70805e-10 5.89254e-09 4.34074e-09 -2.49193e-10 3.40781e-09 2.41728e-09 -1.70797e-10 -7.73091 5.47488 -0.417314 3.40781e-09 2.41729e-09 -1.70813e-10 -2.90554 0.965183 -0.102902 3.40781e-09 2.4173e-09 -1.70808e-10 -10.2786 0.731801 -0.0259123 3.40781e-09 2.4173e-09 -1.70817e-10 -2.22167 -0.733487 0.20892 -2.03217e-16 0.0 -3.88251e-19 76.7966 -68.3213 68.156 -86.5526 88.9056 86.7198 0.731428 -27.8087 2.00735 2.03217e-16 0.0 3.88251e-19 -8.50347 -10.1929 -7.79236 1.07885 67.9605 -3.87968 -6.11228 4.19448 -20.5313
-31.098599999999998 53.952 -3.737142 -43.7573 -87.7629 61.739 6.36356 13.2046 -0.566663 4.69443 -20.328 0.930043 -4.11524 -1.04616 1.74888 -23.8701 2.78007 3.47194 -0.0 0.0 0.0 -0.0 0.0 0.0 0.0 0.0 0.0 0.0 0.0 0.0 0.0 0.0 0.0 -4.79543 -51.0362 -10.0147 -1.58049e-09 1.02843e-09 -2.87611e-10 -2.71627e-09 1.97243e-09 -5.59451e-10 -1.58049e-09 1.02844e-09 -2.87624e-10 7.73091 5.47488 0.417314 -1.58049e-09 1.02844e-09 -2.87605e-10 2.90554 0.965183 0.102902 -1.58049e-09 1.02843e-09 -2.87605e-10 10.2786 0.731801 0.0259123 -1.5805e-09 1.02843e-09 -2.87597e-10 2.22167 -0.733487 -0.20892 0.0 0.0 0.0 0.0 0.0 0.0 0.0 0.0 0.0 0.578607 -20.9835 3.09204 3.25295e-09 3.02179e-09 -2.29323e-10 5.62816e-09 5.41479e-09 -3.50407e-10 3.25295e-09 3.02177e-09 -2.29314e-10 -7.73091 5.47488 -0.417314 3.25295e-09 3.02179e-09 -2.29328e-10 -2.90554 0.965183 -0.102902 3.25295e-09 3.02179e-09 -2.29326e-10 -10.2786 0.731801 -0.0259123 3.25295e-09 3.02179e-09 -2.29336e-10 -2.22167 -0.733487 0.20892 -2.03217e-16 0.0 -3.88251e-19 77.9462 -68.7759 69.3171 -138.347 88.3205 138.523 0.418886 -28.551 1.21439 2.03217e-16 0.0 3.88251e-19 -8.85955 -10.0485 -7.67493 1.15722 68.9242 -3.99895 -6.21878 3.75594 -20.5877
-31.386499999999998 53.3268 -3.5014119999999997 -34.8694 -87.7618 52.698 5.97946 13.4272 -0.624457 4.76848 -20.4994 0.937008 -4.22054 -1.01426 1.73133 -24.1528 3.13368 3.49614 -0.0 0.0 0.0 -0.0 0.0 0.0 0.0 0.0 0.0 0.0 0.0 0.0 0.0 0.0 0.0 -4.49044 -49.928 -9.62101 -1.58371e-09 2.29271e-09 -7.43405e-10 -2.7049e-09 4.16109e-09 -1.34378e-09 -1.5837e-09 2.29271e-09 -7.4341e-10 7.73091 5.47488 0.417314 -1.58371e-09 2.29273e-09 -7.43399e-10 2.90554 0.965183 0.102902 -1.5837e-09 2.29271e-09 -7.43398e-10 10.2786 0.731801 0.0259123 -1.58371e-09 2.29271e-09 -7.43394e-10 2.22167 -0.733487 -0.20892 0.0 0.0 0.0 0.0 0.0 0.0 0.0 0.0 0.0 0.620125 -21.6849 3.2058 2.9821e-09 4.54736e-09 -2.33322e-10 5.16225e-09 8.07184e-09 -3.59719e-10 2.9821e-09 4.54735e-09 -2.33311e-10 -7.73091 5.47488 -0.417314 2.9821e-09 4.54737e-09 -2.33323e-10 -2.90554 0.965183 -0.102902 2.9821e-09 4.54736e-09 -2.33325e-10 -10.2786 0.731801 -0.0259123 2.9821e-09 4.54736e-09 -2.33334e-10 -2.22167 -0.733487 0.20892 -2.03217e-16 0.0 -3.88251e-19 78.9354 -69.2046 70.3142 -155.382 87.2668 155.569 0.0329172 -29.3158 0.293257 2.03217e-16 0.0 3.88251e-19 -9.17809 -9.84168 -7.54111 1.22743 69.7447 -4.10917 -6.29303 3.3925 -20.7222
-31.722900000000003 52.7741 -3.306872 -28.4764 -87.6593 46.1175 5.57131 13.6468 -0.72743 4.85741 -20.6298 0.930011 -4.26636 -0.983544 1.74346 -24.4571 3.48472 3.56588 -0.0 0.0 0.0 -0.0 0.0 0.0 0.0 0.0 0.0 0.0 0.0 0.0 0.0 0.0 0.0 -4.16736 -48.6762 -9.19762 -1.70467e-09 3.41004e-09 -9.86872e-10 -2.90566e-09 6.10933e-09 -1.76502e-09 -1.70467e-09 3.41004e-09 -9.86872e-10 7.73091 5.47488 0.417314 -1.70468e-09 3.41006e-09 -9.86866e-10 2.90554 0.965183 0.102902 -1.70467e-09 3.41004e-09 -9.86866e-10 10.2786 0.731801 0.0259123 -1.70468e-09 3.41004e-09 -9.86862e-10 2.22167 -0.733487 -0.20892 0.0 0.0 0.0 0.0 0.0 0.0 0.0 0.0 0.0 0.604217 -21.526 3.17778 2.89699e-09 7.8049e-09 -1.56168e-10 5.01509e-09 1.37079e-08 -2.28495e-10 2.89698e-09 7.80489e-09 -1.56159e-10 -7.73091 5.47488 -0.417314 2.89699e-09 7.80491e-09 -1.56168e-10 -2.90554 0.965183 -0.102902 2.89698e-09 7.8049e-09 -1.56172e-10 -10.2786 0.731801 -0.0259123 2.89699e-09 7.8049e-09 -1.56181e-10 -2.22167 -0.733487 0.20892 -2.03217e-16 0.0 -3.88251e-19 79.6729 -69.5171 70.9899 -162.151 86.2199 162.349 -0.315001 -29.9674 -0.495947 2.03217e-16 0.0 3.88251e-19 -9.3547 -9.56835 -7.38406 1.27901 70.3443 -4.20754 -6.26219 3.3558 -21.0316
-32.0583 52.2841 -3.2005019999999997 -25.523 -87.4953 42.8938 5.15101 13.8733 -0.901346 4.98052 -20.7077 0.904835 -4.29614 -0.965273 1.80655 -24.6997 3.85006 3.73864 -0.0 0.0 0.0 -0.0 0.0 0.0 0.0 0.0 0.0 0.0 0.0 0.0 0.0 0.0 0.0 -3.85456 -47.3371 -8.77417 -2.11341e-09 4.55448e-09 -9.00641e-10 -3.61715e-09 8.13893e-09 -1.62523e-09 -2.1134e-09 4.55448e-09 -9.00642e-10 7.73091 5.47488 0.417314 -2.11341e-09 4.5545e-09 -9.00637e-10 2.90554 0.965183 0.102902 -2.1134e-09 4.55448e-09 -9.00637e-10 10.2786 0.731801 0.0259123 -2.11341e-09 4.55448e-09 -9.00634e-10 2.22167 -0.733487 -0.20892 0.0 0.0 0.0 0.0 0.0 0.0 0.0 0.0 0.0 0.518651 -20.1758 2.95707 3.17912e-09 1.46943e-08 5.47667e-11 5.49873e-09 2.56018e-08 1.34921e-10 3.17911e-09 1.46942e-08 5.47728e-11 -7.73091 5.47488 -0.417314 3.17912e-09 1.46943e-08 5.47656e-11 -2.90554 0.965183 -0.102902 3.17911e-09 1.46943e-08 5.47629e-11 -10.2786 0.731801 -0.0259123 3.17912e-09 1.46943e-08 5.47544e-11 -2.22167 -0.733487 0.20892 -2.03217e-16 0.0 -3.88251e-19 80.0063 -69.6784 71.1541 -165.644 85.2576 165.856 -0.56733 -30.5032 -1.0481 2.03217e-16 0.0 3.88251e-19 -9.31559 -9.19187 -7.16054 1.29758 70.6549 -4.2835 -6.06902 3.80027 -21.6118
